<svg xmlns="http://www.w3.org/2000/svg" width="24" height="40" viewBox="0 0 24 40"><path fill="#e6e6e6" d="M22.88 1.53c.27.51.1 1.16-.36 1.46L3.42 20l19.1 17.01c.47.29.63.95.36 1.46a.94.94 0 0 1-1.34.39L1.48 20.99a1.1 1.1 0 0 1-.49-1c-.02-.38.16-.77.5-.98L21.53 1.14a.94.94 0 0 1 1.34.39z"/><path fill="#665f60" d="M22.88 1.53c.27.51.1 1.16-.36 1.46L3.42 20l19.1 17.01c.47.29.63.95.36 1.46a.94.94 0 0 1-1.34.39L1.48 20.99a1.1 1.1 0 0 1-.49-1c-.02-.38.16-.77.5-.98L21.53 1.14a.94.94 0 0 1 1.34.39z"/></svg>
