<svg xmlns="http://www.w3.org/2000/svg" width="24" height="40" viewBox="0 0 24 40"><path fill="#e6e6e6" d="M1.12 1.53c-.27.51-.11 1.16.36 1.46L20.58 20 1.47 37.01c-.47.29-.63.95-.36 1.46s.87.68 1.34.39l20.06-17.87c.33-.21.51-.6.49-1 .02-.38-.16-.77-.49-.98L2.46 1.14a.94.94 0 0 0-1.34.39z"/><path fill="#665f60" d="M1.12 1.53c-.27.51-.11 1.16.36 1.46L20.58 20 1.47 37.01c-.47.29-.63.95-.36 1.46s.87.68 1.34.39l20.06-17.87c.33-.21.51-.6.49-1 .02-.38-.16-.77-.49-.98L2.46 1.14a.94.94 0 0 0-1.34.39z"/></svg>
