<svg id="SvgjsSvg1024" xmlns="http://www.w3.org/2000/svg" version="1.1" xmlns:xlink="http://www.w3.org/1999/xlink" xmlns:svgjs="http://svgjs.com/svgjs" width="32" height="32" viewBox="0 0 32 32"><title>behance</title><desc>Created with Avocode.</desc><defs id="SvgjsDefs1025"></defs><path id="SvgjsPath1026" d="M685 4337C693.837 4337 701 4344.16 701 4353C701 4361.84 693.837 4369 685 4369C676.163 4369 669 4361.84 669 4353C669 4344.16 676.163 4337 685 4337ZM675 4358.77H680.964C683.187 4358.77 685.3080000000001 4357.75 685.3080000000001 4355.38C685.3080000000001 4353.92 684.5500000000001 4352.82 683.0490000000001 4352.41C684.1190000000001 4351.92 684.7220000000001 4351.12 684.7220000000001 4349.97C684.7220000000001 4347.79 683.1370000000001 4347 680.7930000000001 4347H675.0000000000001ZM677.475 4348.97H680.241C681.205 4348.97 682.102 4349.2 682.102 4350.320000000001C682.102 4351.3 681.395 4351.710000000001 680.447 4351.710000000001H677.475ZM677.475 4353.66H680.654C681.809 4353.66 682.524 4354.13 682.524 4355.33C682.524 4356.54 681.671 4356.87 680.602 4356.87H677.475ZM694.828 4354.83C695 4352.23 693.535 4350.07 690.501 4350.07C687.7959999999999 4350.07 685.925 4352 685.925 4354.54C685.925 4357.17 687.692 4359 690.501 4359C692.519 4359 694.088 4357.95 694.776 4355.95H692.622C692.467 4356.48 691.5699999999999 4357.25 690.587 4357.25C689.226 4357.25 688.468 4356.3 688.399 4354.83ZM688.399 4353.31C688.433 4352.650000000001 688.881 4351.830000000001 690.432 4351.830000000001C691.621 4351.830000000001 692.157 4352.130000000001 692.381 4353.31ZM693 4349V4348H688V4349Z " fill="#0188f5" fill-opacity="1" transform="matrix(1,0,0,1,-669,-4337)"></path><path id="SvgjsPath1027" d="M685 4337C693.837 4337 701 4344.16 701 4353C701 4361.84 693.837 4369 685 4369C676.163 4369 669 4361.84 669 4353C669 4344.16 676.163 4337 685 4337ZM675 4358.77H680.964C683.187 4358.77 685.3080000000001 4357.75 685.3080000000001 4355.38C685.3080000000001 4353.92 684.5500000000001 4352.82 683.0490000000001 4352.41C684.1190000000001 4351.92 684.7220000000001 4351.12 684.7220000000001 4349.97C684.7220000000001 4347.79 683.1370000000001 4347 680.7930000000001 4347H675.0000000000001ZM677.475 4348.97H680.241C681.205 4348.97 682.102 4349.2 682.102 4350.320000000001C682.102 4351.3 681.395 4351.710000000001 680.447 4351.710000000001H677.475ZM677.475 4353.66H680.654C681.809 4353.66 682.524 4354.13 682.524 4355.33C682.524 4356.54 681.671 4356.87 680.602 4356.87H677.475ZM694.828 4354.83C695 4352.23 693.535 4350.07 690.501 4350.07C687.7959999999999 4350.07 685.925 4352 685.925 4354.54C685.925 4357.17 687.692 4359 690.501 4359C692.519 4359 694.088 4357.95 694.776 4355.95H692.622C692.467 4356.48 691.5699999999999 4357.25 690.587 4357.25C689.226 4357.25 688.468 4356.3 688.399 4354.83ZM688.399 4353.31C688.433 4352.650000000001 688.881 4351.830000000001 690.432 4351.830000000001C691.621 4351.830000000001 692.157 4352.130000000001 692.381 4353.31ZM693 4349V4348H688V4349Z " fill="#ebebeb" fill-opacity="1" transform="matrix(1,0,0,1,-669,-4337)"></path></svg>
