<svg id="SvgjsSvg1016" xmlns="http://www.w3.org/2000/svg" version="1.1" xmlns:xlink="http://www.w3.org/1999/xlink" xmlns:svgjs="http://svgjs.com/svgjs" width="32" height="32" viewBox="0 0 32 32"><title>facebook</title><desc>Created with Avocode.</desc><defs id="SvgjsDefs1017"></defs><path id="SvgjsPath1018" d="M440 4337C448.837 4337 456 4344.16 456 4353C456 4361.84 448.837 4369 440 4369C431.164 4369 424 4361.84 424 4353C424 4344.16 431.164 4337 440 4337ZM442.126 4343C438.25199999999995 4343 439 4347 439 4347V4350H437V4354H439V4363H443V4354H445L446 4350H443C443 4350 443 4348.82 443 4348C443 4347.18 444 4347 444 4347H446V4343C446 4343 446 4343 442.126 4343Z " fill="#4463b1" fill-opacity="1" transform="matrix(1,0,0,1,-424,-4337)"></path><path id="SvgjsPath1019" d="M440 4337C448.837 4337 456 4344.16 456 4353C456 4361.84 448.837 4369 440 4369C431.164 4369 424 4361.84 424 4353C424 4344.16 431.164 4337 440 4337ZM442.126 4343C438.25199999999995 4343 439 4347 439 4347V4350H437V4354H439V4363H443V4354H445L446 4350H443C443 4350 443 4348.82 443 4348C443 4347.18 444 4347 444 4347H446V4343C446 4343 446 4343 442.126 4343Z " fill="#ebebeb" fill-opacity="1" transform="matrix(1,0,0,1,-424,-4337)"></path></svg>
