<svg id="SvgjsSvg1012" xmlns="http://www.w3.org/2000/svg" version="1.1" xmlns:xlink="http://www.w3.org/1999/xlink" xmlns:svgjs="http://svgjs.com/svgjs" width="32" height="33" viewBox="0 0 32 33"><title>google+</title><desc>Created with Avocode.</desc><defs id="SvgjsDefs1013"></defs><path id="SvgjsPath1014" d="M396 4337C404.837 4337 412 4344.17 412 4353C412 4361.84 404.837 4369.01 396 4369.01C395.44501 4369.01 394.89662 4368.98172 394.35619 4368.92652C396.91762 4367.66764 398.24600000000004 4365.47528 398.24600000000004 4363.3C398.24600000000004 4360.85 396.879 4359.650000000001 395.37300000000005 4358.34L394.141 4357.34C393.76500000000004 4357.03 393.252 4356.6 393.252 4355.82C393.252 4355.04 393.765 4354.54 394.21000000000004 4354.08C395.646 4352.91 397.083 4351.67 397.083 4349.05C397.083 4346.360000000001 395.44100000000003 4344.9400000000005 394.65400000000005 4344.27H396.77500000000003L398.96400000000006 4342.990000000001H391.91800000000006C390.07000000000005 4342.990000000001 387.74500000000006 4343.27 385.7950000000001 4344.9400000000005C384.32400000000007 4346.250000000001 383.6050000000001 4348.06 383.6050000000001 4349.6900000000005C383.6050000000001 4352.450000000001 385.6580000000001 4355.250000000001 389.28400000000005 4355.250000000001C389.62600000000003 4355.250000000001 390.00200000000007 4355.220000000001 390.3790000000001 4355.180000000001C390.20700000000005 4355.6100000000015 390.0370000000001 4355.960000000001 390.0370000000001 4356.5700000000015C390.0370000000001 4357.660000000002 390.5830000000001 4358.340000000002 391.06200000000007 4358.980000000001C389.52400000000006 4359.080000000002 386.6500000000001 4359.260000000001 384.52900000000005 4360.6100000000015C383.7985800000001 4361.058600000001 383.25192000000004 4361.580490000001 382.85165000000006 4362.124540000002C381.05379000000005 4359.535610000002 380.00000000000006 4356.390650000001 380.00000000000006 4353.000000000002C380.00000000000006 4344.170000000002 387.16300000000007 4337.000000000002 396.00000000000006 4337.000000000002ZM392.225 4360C394.826 4361.92 395.954 4362.87 395.954 4364.68C395.954 4366.6652300000005 394.53389 4368.18631 391.84358000000003 4368.46438C389.20478 4367.755910000001 386.83529000000004 4366.38911 384.9216 4364.55087C384.91057 4364.43232 384.90500000000003 4364.31198 384.90500000000003 4364.19C384.90500000000003 4361.669999999999 387.095 4360.82 387.84700000000004 4360.54C389.28400000000005 4360.04 391.13100000000003 4359.97 391.439 4359.97C391.78000000000003 4359.97 391.952 4359.97 392.225 4360ZM393.219 4353.27C392.671 4353.84 391.746 4354.26 390.891 4354.26C387.949 4354.26 386.615 4350.33 386.615 4347.95C386.615 4347.03 386.786 4346.07 387.368 4345.33C387.916 4344.62 388.873 4344.16 389.762 4344.16C392.603 4344.16 394.073 4348.13 394.073 4350.68C394.073 4351.320000000001 394.00399999999996 4352.450000000001 393.219 4353.27ZM404 4351V4348H407V4346L404 4346V4343H402V4346H399V4348H402V4351Z " fill="#da4935" fill-opacity="1" transform="matrix(1,0,0,1,-380,-4337)"></path><path id="SvgjsPath1015" d="M396 4337C404.837 4337 412 4344.17 412 4353C412 4361.84 404.837 4369.01 396 4369.01C395.44501 4369.01 394.89662 4368.98172 394.35619 4368.92652C396.91762 4367.66764 398.24600000000004 4365.47528 398.24600000000004 4363.3C398.24600000000004 4360.85 396.879 4359.650000000001 395.37300000000005 4358.34L394.141 4357.34C393.76500000000004 4357.03 393.252 4356.6 393.252 4355.82C393.252 4355.04 393.765 4354.54 394.21000000000004 4354.08C395.646 4352.91 397.083 4351.67 397.083 4349.05C397.083 4346.360000000001 395.44100000000003 4344.9400000000005 394.65400000000005 4344.27H396.77500000000003L398.96400000000006 4342.990000000001H391.91800000000006C390.07000000000005 4342.990000000001 387.74500000000006 4343.27 385.7950000000001 4344.9400000000005C384.32400000000007 4346.250000000001 383.6050000000001 4348.06 383.6050000000001 4349.6900000000005C383.6050000000001 4352.450000000001 385.6580000000001 4355.250000000001 389.28400000000005 4355.250000000001C389.62600000000003 4355.250000000001 390.00200000000007 4355.220000000001 390.3790000000001 4355.180000000001C390.20700000000005 4355.6100000000015 390.0370000000001 4355.960000000001 390.0370000000001 4356.5700000000015C390.0370000000001 4357.660000000002 390.5830000000001 4358.340000000002 391.06200000000007 4358.980000000001C389.52400000000006 4359.080000000002 386.6500000000001 4359.260000000001 384.52900000000005 4360.6100000000015C383.7985800000001 4361.058600000001 383.25192000000004 4361.580490000001 382.85165000000006 4362.124540000002C381.05379000000005 4359.535610000002 380.00000000000006 4356.390650000001 380.00000000000006 4353.000000000002C380.00000000000006 4344.170000000002 387.16300000000007 4337.000000000002 396.00000000000006 4337.000000000002ZM392.225 4360C394.826 4361.92 395.954 4362.87 395.954 4364.68C395.954 4366.6652300000005 394.53389 4368.18631 391.84358000000003 4368.46438C389.20478 4367.755910000001 386.83529000000004 4366.38911 384.9216 4364.55087C384.91057 4364.43232 384.90500000000003 4364.31198 384.90500000000003 4364.19C384.90500000000003 4361.669999999999 387.095 4360.82 387.84700000000004 4360.54C389.28400000000005 4360.04 391.13100000000003 4359.97 391.439 4359.97C391.78000000000003 4359.97 391.952 4359.97 392.225 4360ZM393.219 4353.27C392.671 4353.84 391.746 4354.26 390.891 4354.26C387.949 4354.26 386.615 4350.33 386.615 4347.95C386.615 4347.03 386.786 4346.07 387.368 4345.33C387.916 4344.62 388.873 4344.16 389.762 4344.16C392.603 4344.16 394.073 4348.13 394.073 4350.68C394.073 4351.320000000001 394.00399999999996 4352.450000000001 393.219 4353.27ZM404 4351V4348H407V4346H404V4343H402V4346H399V4348H402V4351Z " fill="#ebebeb" fill-opacity="1" transform="matrix(1,0,0,1,-380,-4337)"></path></svg>
