<svg id="SvgjsSvg1008" xmlns="http://www.w3.org/2000/svg" version="1.1" xmlns:xlink="http://www.w3.org/1999/xlink" xmlns:svgjs="http://svgjs.com/svgjs" width="32" height="32" viewBox="0 0 32 32"><title>linked-in</title><desc>Created with Avocode.</desc><defs id="SvgjsDefs1009"></defs><path id="SvgjsPath1010" d="M351 4337C359.837 4337 367 4344.16 367 4353C367 4361.84 359.837 4369 351 4369C342.163 4369 335 4361.84 335 4353C335 4344.16 342.163 4337 351 4337ZM342.484 4344.46C342.166 4344.77 342.008 4345.14 342.008 4345.57C342.008 4346.0199999999995 342.168 4346.4 342.489 4346.719999999999C342.81 4347.03 343.198 4347.19 343.65299999999996 4347.19C344.09499999999997 4347.19 344.47499999999997 4347.04 344.79299999999995 4346.73C345.11099999999993 4346.419999999999 345.2699999999999 4346.04 345.2699999999999 4345.599999999999C345.2699999999999 4345.16 345.1089999999999 4344.78 344.7879999999999 4344.469999999999C344.46699999999987 4344.159999999999 344.0829999999999 4343.999999999999 343.6339999999999 4343.999999999999C343.1849999999999 4343.999999999999 342.8019999999999 4344.149999999999 342.4839999999999 4344.459999999999ZM342 4360H345.275V4347.99H342ZM347.73 4360H350.988V4355.64C350.988 4354.360000000001 351.042 4353.52 351.151 4353.14C351.35900000000004 4352.400000000001 351.733 4351.820000000001 352.272 4351.400000000001C352.811 4350.9800000000005 353.456 4350.77 354.20799999999997 4350.77C354.78799999999995 4350.77 355.275 4350.900000000001 355.669 4351.150000000001C356.063 4351.400000000001 356.339 4351.77 356.498 4352.26C356.656 4352.74 356.736 4353.72 356.736 4355.1900000000005V4360.000000000001H360V4352.4400000000005C360 4351.02 359.51 4349.9400000000005 358.649 4349.22C357.624 4348.360000000001 356.614 4347.9400000000005 355.145 4347.9400000000005C354.428 4347.9400000000005 353.964 4348.05 353.279 4348.280000000001C352.59499999999997 4348.52 351.848 4349.000000000001 351.005 4349.590000000001V4347.990000000001H347.73Z " fill="#005a87" fill-opacity="1" transform="matrix(1,0,0,1,-335,-4337)"></path><path id="SvgjsPath1011" d="M351 4337C359.837 4337 367 4344.16 367 4353C367 4361.84 359.837 4369 351 4369C342.163 4369 335 4361.84 335 4353C335 4344.16 342.163 4337 351 4337ZM342.484 4344.46C342.166 4344.77 342.008 4345.14 342.008 4345.57C342.008 4346.0199999999995 342.168 4346.4 342.489 4346.719999999999C342.81 4347.03 343.198 4347.19 343.65299999999996 4347.19C344.09499999999997 4347.19 344.47499999999997 4347.04 344.79299999999995 4346.73C345.11099999999993 4346.419999999999 345.2699999999999 4346.04 345.2699999999999 4345.599999999999C345.2699999999999 4345.16 345.1089999999999 4344.78 344.7879999999999 4344.469999999999C344.46699999999987 4344.159999999999 344.0829999999999 4343.999999999999 343.6339999999999 4343.999999999999C343.1849999999999 4343.999999999999 342.8019999999999 4344.149999999999 342.4839999999999 4344.459999999999ZM342 4360H345.275V4347.99H342ZM347.73 4360H350.988V4355.64C350.988 4354.360000000001 351.042 4353.52 351.151 4353.14C351.35900000000004 4352.400000000001 351.733 4351.820000000001 352.272 4351.400000000001C352.811 4350.9800000000005 353.456 4350.77 354.20799999999997 4350.77C354.78799999999995 4350.77 355.275 4350.900000000001 355.669 4351.150000000001C356.063 4351.400000000001 356.339 4351.77 356.498 4352.26C356.656 4352.74 356.736 4353.72 356.736 4355.1900000000005V4360.000000000001H360V4352.4400000000005C360 4351.02 359.51 4349.9400000000005 358.649 4349.22C357.624 4348.360000000001 356.614 4347.9400000000005 355.145 4347.9400000000005C354.428 4347.9400000000005 353.964 4348.05 353.279 4348.280000000001C352.59499999999997 4348.52 351.848 4349.000000000001 351.005 4349.590000000001V4347.990000000001H347.73Z " fill="#ebebeb" fill-opacity="1" transform="matrix(1,0,0,1,-335,-4337)"></path></svg>
