<svg id="SvgjsSvg1000" xmlns="http://www.w3.org/2000/svg" version="1.1" xmlns:xlink="http://www.w3.org/1999/xlink" xmlns:svgjs="http://svgjs.com/svgjs" width="54" height="73" viewBox="0 0 54 73"><title>Logo</title><desc>Created with Avocode.</desc><defs id="SvgjsDefs1001"></defs><path id="SvgjsPath1007" d="M274.714 88.9811C274.206 94.5394 273.174 99.4256 271.295 103.698C270.672 105.11399999999999 269.53900000000004 106.46499999999999 269.016 108C268.94 108 268.86400000000003 108 268.788 108C268.788 107.622 268.788 107.245 268.788 106.868C269.216 106.20299999999999 269.007 105.29299999999999 269.244 104.377C270.372 100.02 270.45700000000005 94.207 268.56 90.566C265.32 84.3449 258.832 86.4375 252.379 83.7735C249.851 82.7301 247.994 80.583 246.68099999999998 78.3393C246.225 77.05659999999999 245.76899999999998 75.77319999999999 245.313 74.4905C244.59699999999998 71.7845 245.25099999999998 68.29129999999999 245.99699999999999 66.3394C249.10399999999998 58.208299999999994 256.86899999999997 54.6301 266.281 59.0943C266.281 58.867799999999995 266.281 58.6414 266.281 58.414899999999996C265.474 57.318799999999996 265.736 55.682399999999994 265.369 54.113099999999996C264.384 49.894 263.625 36.046499999999995 268.33200000000005 35.9997C269.60900000000004 36.9261 272.06300000000005 36.884899999999995 272.20700000000005 38.9434C271.8310000000001 39.348499999999994 271.809 39.5119 271.75100000000003 40.3018C271.82700000000006 40.3018 271.903 40.3018 271.97900000000004 40.3018C271.97900000000004 40.2261 271.97900000000004 40.1507 271.97900000000004 40.0754C272.96000000000004 39.045 273.22900000000004 36.7046 274.94200000000006 36.452600000000004C276.31000000000006 37.672900000000006 278.62500000000006 37.9157 279.04400000000004 40.0754C277.90200000000004 41.521100000000004 276.77500000000003 44.049400000000006 276.309 45.9621C276.461 45.9621 276.613 45.9621 276.76500000000004 45.9621C278.19300000000004 44.0849 284.07700000000006 38.7113 286.79300000000006 39.1695C287.59700000000004 40.4612 288.4270000000001 41.7376 288.84400000000005 43.4716C287.40900000000005 43.981300000000005 286.749 45.367000000000004 285.6530000000001 46.188500000000005C281.65400000000005 49.188300000000005 278.4220000000001 53.56250000000001 275.85300000000007 57.962C276.0810000000001 57.962 276.3090000000001 57.962 276.5370000000001 57.962C278.1060000000001 56.741600000000005 284.5100000000001 56.150600000000004 287.2490000000001 56.830000000000005C294.47100000000006 58.62180000000001 296.5010000000001 61.1009 298.1880000000001 68.3773C298.4230000000001 69.3884 298.7320000000001 71.7689 298.4160000000001 73.132C296.2330000000001 82.5737 291.6260000000001 87.34110000000001 282.0070000000001 89.4337C279.4360000000001 89.9929 276.8730000000001 89.09700000000001 274.7140000000001 88.9811Z " fill="#f6f6f6" fill-opacity="1" transform="matrix(1,0,0,1,-245,-35)"></path></svg>
