<svg xmlns="http://www.w3.org/2000/svg" width="47" height="54" viewBox="0 0 47 54"><path fill="#3aa0ef" d="M35.28 3.95c11.2 6.09 15.05 19.57 8.58 30.11-2.28 3.7-8.18 7.4-15.06 10.27A1790.34 1790.34 0 0 0 .88 53.79V24.87s.56-9.83 2.4-12.85c6.48-10.54 20.8-14.15 32-8.07zM12.4 21.2c0 5.99 5.17 10.85 11.54 10.85 6.38 0 11.54-4.86 11.54-10.85 0-6-5.17-10.86-11.54-10.86-6.37 0-11.54 4.86-11.54 10.86z"/><path fill="#9f9acf" d="M35.28 3.95c11.2 6.09 15.05 19.57 8.58 30.11-2.28 3.7-8.18 7.4-15.06 10.27A1790.34 1790.34 0 0 0 .88 53.79V24.87s.56-9.83 2.4-12.85c6.48-10.54 20.8-14.15 32-8.07zM12.4 21.2c0 5.99 5.17 10.85 11.54 10.85 6.38 0 11.54-4.86 11.54-10.85 0-6-5.17-10.86-11.54-10.86-6.37 0-11.54 4.86-11.54 10.86z"/></svg>
