<svg id="SvgjsSvg1020" xmlns="http://www.w3.org/2000/svg" version="1.1" xmlns:xlink="http://www.w3.org/1999/xlink" xmlns:svgjs="http://svgjs.com/svgjs" width="32" height="32" viewBox="0 0 32 32"><title>twitter</title><desc>Created with Avocode.</desc><defs id="SvgjsDefs1021"></defs><path id="SvgjsPath1022" d="M485 4337C493.837 4337 501 4344.16 501 4353C501 4361.84 493.837 4369 485 4369C476.163 4369 469 4361.84 469 4353C469 4344.16 476.163 4337 485 4337ZM492.776 4347.84C493.538 4347.34 494.124 4346.55 494.399 4345.610000000001C493.686 4346.070000000001 492.895 4346.410000000001 492.054 4346.59C491.381 4345.8 490.421 4345.31 489.35799999999995 4345.31C487.31899999999996 4345.31 485.66499999999996 4347.120000000001 485.66499999999996 4349.35C485.66499999999996 4349.67 485.698 4349.97 485.76099999999997 4350.27C482.691 4350.1 479.96999999999997 4348.490000000001 478.14799999999997 4346.05C477.83099999999996 4346.650000000001 477.64799999999997 4347.34 477.64799999999997 4348.08C477.64799999999997 4349.48 478.29999999999995 4350.72 479.29099999999994 4351.44C478.6859999999999 4351.419999999999 478.11699999999996 4351.24 477.6189999999999 4350.94C477.61799999999994 4350.95 477.61799999999994 4350.969999999999 477.61799999999994 4350.99C477.61799999999994 4352.95 478.89099999999996 4354.58 480.58099999999996 4354.95C480.27099999999996 4355.04 479.94499999999994 4355.09 479.60799999999995 4355.09C479.36999999999995 4355.09 479.1379999999999 4355.07 478.91299999999995 4355.02C479.383 4356.620000000001 480.74699999999996 4357.790000000001 482.36299999999994 4357.820000000001C481.09899999999993 4358.910000000001 479.50699999999995 4359.55 477.77599999999995 4359.55C477.47799999999995 4359.55 477.18399999999997 4359.53 476.895 4359.5C478.53 4360.64 480.471 4361.31 482.55699999999996 4361.31C489.34999999999997 4361.31 493.06499999999994 4355.160000000001 493.06499999999994 4349.820000000001C493.06499999999994 4349.64 493.0609999999999 4349.47 493.0539999999999 4349.3C493.7759999999999 4348.7300000000005 494.40199999999993 4348.02 494.89699999999993 4347.2C494.2339999999999 4347.53 493.5229999999999 4347.74 492.77599999999995 4347.84Z " fill="#4e9edc" fill-opacity="1" transform="matrix(1,0,0,1,-469,-4337)"></path><path id="SvgjsPath1023" d="M485 4337C493.837 4337 501 4344.16 501 4353C501 4361.84 493.837 4369 485 4369C476.163 4369 469 4361.84 469 4353C469 4344.16 476.163 4337 485 4337ZM492.776 4347.84C493.538 4347.34 494.124 4346.55 494.399 4345.610000000001C493.686 4346.070000000001 492.895 4346.410000000001 492.054 4346.59C491.381 4345.8 490.421 4345.31 489.35799999999995 4345.31C487.31899999999996 4345.31 485.66499999999996 4347.120000000001 485.66499999999996 4349.35C485.66499999999996 4349.67 485.698 4349.97 485.76099999999997 4350.27C482.691 4350.1 479.96999999999997 4348.490000000001 478.14799999999997 4346.05C477.83099999999996 4346.650000000001 477.64799999999997 4347.34 477.64799999999997 4348.08C477.64799999999997 4349.48 478.29999999999995 4350.72 479.29099999999994 4351.44C478.6859999999999 4351.419999999999 478.11699999999996 4351.24 477.6189999999999 4350.94C477.61799999999994 4350.95 477.61799999999994 4350.969999999999 477.61799999999994 4350.99C477.61799999999994 4352.95 478.89099999999996 4354.58 480.58099999999996 4354.95C480.27099999999996 4355.04 479.94499999999994 4355.09 479.60799999999995 4355.09C479.36999999999995 4355.09 479.1379999999999 4355.07 478.91299999999995 4355.02C479.383 4356.620000000001 480.74699999999996 4357.790000000001 482.36299999999994 4357.820000000001C481.09899999999993 4358.910000000001 479.50699999999995 4359.55 477.77599999999995 4359.55C477.47799999999995 4359.55 477.18399999999997 4359.53 476.895 4359.5C478.53 4360.64 480.471 4361.31 482.55699999999996 4361.31C489.34999999999997 4361.31 493.06499999999994 4355.160000000001 493.06499999999994 4349.820000000001C493.06499999999994 4349.64 493.0609999999999 4349.47 493.0539999999999 4349.3C493.7759999999999 4348.7300000000005 494.40199999999993 4348.02 494.89699999999993 4347.2C494.2339999999999 4347.53 493.5229999999999 4347.74 492.77599999999995 4347.84Z " fill="#ebebeb" fill-opacity="1" transform="matrix(1,0,0,1,-469,-4337)"></path></svg>
